<?xml version="1.0" encoding="UTF-8" standalone="no"?>
<!DOCTYPE svg PUBLIC "-//W3C//DTD SVG 1.1//EN"
 "http://www.w3.org/Graphics/SVG/1.1/DTD/svg11.dtd">
<!-- Generated by graphviz version 14.0.5 (20251129.0259)
 -->
<!-- Title: FSM Pages: 1 -->
<svg width="6707pt" height="293pt"
 viewBox="0.00 0.00 6707.00 293.00" xmlns="http://www.w3.org/2000/svg" xmlns:xlink="http://www.w3.org/1999/xlink">
<g id="graph0" class="graph" transform="scale(1 1) rotate(0) translate(4 289.22)">
<title>FSM</title>
<polygon fill="white" stroke="none" points="-4,4 -4,-289.22 6703.36,-289.22 6703.36,4 -4,4"/>
<!-- start -->
<g id="node1" class="node">
<title>start</title>
<ellipse fill="black" stroke="black" cx="1.8" cy="-136.05" rx="1.8" ry="1.8"/>
</g>
<!-- q0 -->
<g id="node2" class="node">
<title>q0</title>
<ellipse fill="none" stroke="black" cx="67.6" cy="-136.05" rx="27" ry="18"/>
<text xml:space="preserve" text-anchor="middle" x="67.6" y="-131" font-family="Times New Roman,serif" font-size="14.00">q0</text>
</g>
<!-- start&#45;&gt;q0 -->
<g id="edge1" class="edge">
<title>start&#45;&gt;q0</title>
<path fill="none" stroke="black" d="M3.91,-136.05C7.21,-136.05 17.46,-136.05 28.73,-136.05"/>
<polygon fill="black" stroke="black" points="28.62,-139.55 38.62,-136.05 28.62,-132.55 28.62,-139.55"/>
</g>
<!-- q1 -->
<g id="node3" class="node">
<title>q1</title>
<ellipse fill="none" stroke="black" cx="3627.85" cy="-237.05" rx="20.13" ry="20.13"/>
<ellipse fill="none" stroke="black" cx="3627.85" cy="-237.05" rx="24.13" ry="24.13"/>
<text xml:space="preserve" text-anchor="middle" x="3627.85" y="-232" font-family="Times New Roman,serif" font-size="14.00">q1</text>
</g>
<!-- q0&#45;&gt;q1 -->
<g id="edge3" class="edge">
<title>q0&#45;&gt;q1</title>
<path fill="none" stroke="black" d="M88.61,-147.46C95.93,-151.14 104.43,-154.83 112.6,-157.05 345.36,-220.47 412.4,-192.26 653.35,-204.05 1860.85,-263.14 3347.31,-241.74 3592.02,-237.66"/>
<polygon fill="black" stroke="black" points="3591.89,-241.17 3601.83,-237.5 3591.77,-234.17 3591.89,-241.17"/>
<text xml:space="preserve" text-anchor="middle" x="373.98" y="-206.02" font-family="Times New Roman,serif" font-size="14.00">&#39;&#45;&#39;</text>
</g>
<!-- q2 -->
<g id="node4" class="node">
<title>q2</title>
<ellipse fill="none" stroke="black" cx="3627.85" cy="-136.05" rx="20.13" ry="20.13"/>
<ellipse fill="none" stroke="black" cx="3627.85" cy="-136.05" rx="24.13" ry="24.13"/>
<text xml:space="preserve" text-anchor="middle" x="3627.85" y="-131" font-family="Times New Roman,serif" font-size="14.00">q2</text>
</g>
<!-- q0&#45;&gt;q2 -->
<g id="edge4" class="edge">
<title>q0&#45;&gt;q2</title>
<path fill="none" stroke="black" d="M94.7,-136.05C397.68,-136.05 3243.49,-136.05 3591.94,-136.05"/>
<polygon fill="black" stroke="black" points="3591.76,-139.55 3601.76,-136.05 3591.76,-132.55 3591.76,-139.55"/>
<text xml:space="preserve" text-anchor="middle" x="373.98" y="-139.25" font-family="Times New Roman,serif" font-size="14.00">&#39;0&#39;,&#39;1&#39;,&#39;2&#39;,&#39;3&#39;,&#39;4&#39;,&#39;5&#39;,&#39;6&#39;,&#39;7&#39;,&#39;8&#39;,&#39;9&#39;,&#39;a&#39;,&#39;b&#39;,&#39;c&#39;,&#39;d&#39;,&#39;e&#39;,&#39;f&#39;,&#39;g&#39;,&#39;h&#39;,&#39;i&#39;,&#39;j&#39;,&#39;k&#39;,&#39;l&#39;,&#39;m&#39;,&#39;n&#39;,&#39;o&#39;,&#39;p&#39;,&#39;q&#39;,&#39;r&#39;,&#39;s&#39;,&#39;t&#39;,&#39;u&#39;,&#39;v&#39;,&#39;w&#39;,&#39;x&#39;,&#39;y&#39;,&#39;z&#39;</text>
</g>
<!-- q3 -->
<g id="node5" class="node">
<title>q3</title>
<ellipse fill="none" stroke="black" cx="6675.23" cy="-93.05" rx="20.13" ry="20.13"/>
<ellipse fill="none" stroke="black" cx="6675.23" cy="-93.05" rx="24.13" ry="24.13"/>
<text xml:space="preserve" text-anchor="middle" x="6675.23" y="-88" font-family="Times New Roman,serif" font-size="14.00">q3</text>
</g>
<!-- q0&#45;&gt;q3 -->
<g id="edge2" class="edge">
<title>q0&#45;&gt;q3</title>
<path fill="none" stroke="black" d="M94.49,-133.07C176.32,-123.81 436.79,-95.65 653.35,-86.55 3295.02,24.39 3961.04,32.63 6602.35,-86.55 6614.55,-87.1 6627.89,-88.18 6639.72,-89.3"/>
<polygon fill="black" stroke="black" points="6639.16,-92.76 6649.45,-90.26 6639.85,-85.79 6639.16,-92.76"/>
<text xml:space="preserve" text-anchor="middle" x="3627.85" y="-89.75" font-family="Times New Roman,serif" font-size="14.00">0x01,0x02,0x03,0x04,0x05,0x06,0x07,0x08,0x0E,0x0F,0x10,0x11,0x12,0x13,0x14,0x15,0x16,0x17,0x18,0x19,0x1A,0x1B,0x1C,0x1D,0x1E,0x1F,&#39;!&#39;,&#39;&quot;&#39;,&#39;#&#39;,&#39;$&#39;,&#39;%&#39;,&#39;&#39;&#39;,&#39;(&#39;,&#39;)&#39;,&#39;*&#39;,&#39;+&#39;,&#39;,&#39;,&#39;.&#39;,&#39;/&#39;,&#39;:&#39;,&#39;;&#39;,&#39;&lt;&#39;,&#39;=&#39;,&#39;&gt;&#39;,&#39;?&#39;,&#39;@&#39;,&#39;A&#39;,&#39;B&#39;,&#39;C&#39;,&#39;D&#39;,&#39;E&#39;,&#39;F&#39;,&#39;G&#39;,&#39;H&#39;,&#39;I&#39;,&#39;J&#39;,&#39;K&#39;,&#39;L&#39;,&#39;M&#39;,&#39;N&#39;,&#39;O&#39;,&#39;P&#39;,&#39;Q&#39;,&#39;R&#39;,&#39;S&#39;,&#39;T&#39;,&#39;U&#39;,&#39;V&#39;,&#39;W&#39;,&#39;X&#39;,&#39;Y&#39;,&#39;Z&#39;,&#39;[&#39;,&#39;&#39;,&#39;]&#39;,&#39;^&#39;,&#39;_&#39;,&#39;`&#39;,&#39;{&#39;,&#39;|&#39;,&#39;}&#39;,&#39;~&#39;,0x7F,0x80,0x81,0x82,0x83,0x84,0x85,0x86,0x87,0x88,0x89,0x8A,0x8B,0x8C,0x8D,0x8E,0x8F,0x90,0x91,0x92,0x93,0x94,0x95,0x96,0x97,0x98,0x99,0x9A,0x9B,0x9C,0x9D,0x9E,0x9F,0xA0,0xA1,0xA2,0xA3,0xA4,0xA5,0xA6,0xA7,0xA8,0xA9,0xAA,0xAB,0xAC,0xAD,0xAE,0xAF,0xB0,0xB1,0xB2,0xB3,0xB4,0xB5,0xB6,0xB7,0xB8,0xB9,0xBA,0xBB,0xBC,0xBD,0xBE,0xBF,0xC0,0xC1,0xC2,0xC3,0xC4,0xC5,0xC6,0xC7,0xC8,0xC9,0xCA,0xCB,0xCC,0xCD,0xCE,0xCF,0xD0,0xD1,0xD2,0xD3,0xD4,0xD5,0xD6,0xD7,0xD8,0xD9,0xDA,0xDB,0xDC,0xDD,0xDE,0xDF,0xE0,0xE1,0xE2,0xE3,0xE4,0xE5,0xE6,0xE7,0xE8,0xE9,0xEA,0xEB,0xEC,0xED,0xEE,0xEF,0xF0,0xF1,0xF2,0xF3,0xF4,0xF5,0xF6,0xF7,0xF8,0xF9,0xFA,0xFB,0xFC,0xFD,0xFE,0xFF</text>
</g>
<!-- q1&#45;&gt;q3 -->
<g id="edge6" class="edge">
<title>q1&#45;&gt;q3</title>
<path fill="none" stroke="black" d="M3652.1,-238.12C3915.26,-250.03 6328.79,-354.79 6602.35,-204.05 6632.26,-187.57 6651.68,-152.77 6662.7,-126.5"/>
<polygon fill="black" stroke="black" points="6665.94,-127.83 6666.36,-117.25 6659.43,-125.26 6665.94,-127.83"/>
<text xml:space="preserve" text-anchor="middle" x="6626.73" y="-192.52" font-family="Times New Roman,serif" font-size="14.00">&#39;&gt;&#39;</text>
</g>
<!-- q2&#45;&gt;q2 -->
<g id="edge5" class="edge">
<title>q2&#45;&gt;q2</title>
<path fill="none" stroke="black" d="M3603.41,-136.52C2878.22,-150.71 2886.37,-178.18 3627.85,-178.18 4365.44,-178.18 4377.37,-151 3663.65,-136.75"/>
<polygon fill="black" stroke="black" points="3663.87,-133.25 3653.8,-136.55 3663.73,-140.25 3663.87,-133.25"/>
<text xml:space="preserve" text-anchor="middle" x="3627.85" y="-181.38" font-family="Times New Roman,serif" font-size="14.00">&#39;0&#39;,&#39;1&#39;,&#39;2&#39;,&#39;3&#39;,&#39;4&#39;,&#39;5&#39;,&#39;6&#39;,&#39;7&#39;,&#39;8&#39;,&#39;9&#39;,&#39;a&#39;,&#39;b&#39;,&#39;c&#39;,&#39;d&#39;,&#39;e&#39;,&#39;f&#39;,&#39;g&#39;,&#39;h&#39;,&#39;i&#39;,&#39;j&#39;,&#39;k&#39;,&#39;l&#39;,&#39;m&#39;,&#39;n&#39;,&#39;o&#39;,&#39;p&#39;,&#39;q&#39;,&#39;r&#39;,&#39;s&#39;,&#39;t&#39;,&#39;u&#39;,&#39;v&#39;,&#39;w&#39;,&#39;x&#39;,&#39;y&#39;,&#39;z&#39;</text>
</g>
</g>
</svg>
