<?xml version="1.0" encoding="UTF-8" standalone="no"?>
<!DOCTYPE svg PUBLIC "-//W3C//DTD SVG 1.1//EN"
 "http://www.w3.org/Graphics/SVG/1.1/DTD/svg11.dtd">
<!-- Generated by graphviz version 14.0.5 (20251129.0259)
 -->
<!-- Title: FSM Pages: 1 -->
<svg width="1645pt" height="929pt"
 viewBox="0.00 0.00 1645.00 929.00" xmlns="http://www.w3.org/2000/svg" xmlns:xlink="http://www.w3.org/1999/xlink">
<g id="graph0" class="graph" transform="scale(1 1) rotate(0) translate(4 924.87)">
<title>FSM</title>
<polygon fill="white" stroke="none" points="-4,4 -4,-924.87 1640.7,-924.87 1640.7,4 -4,4"/>
<!-- start -->
<g id="node1" class="node">
<title>start</title>
<ellipse fill="black" stroke="black" cx="1.8" cy="-408.74" rx="1.8" ry="1.8"/>
</g>
<!-- q0 -->
<g id="node2" class="node">
<title>q0</title>
<ellipse fill="none" stroke="black" cx="67.6" cy="-408.74" rx="27" ry="18"/>
<text xml:space="preserve" text-anchor="middle" x="67.6" y="-403.69" font-family="Times New Roman,serif" font-size="14.00">q0</text>
</g>
<!-- start&#45;&gt;q0 -->
<g id="edge1" class="edge">
<title>start&#45;&gt;q0</title>
<path fill="none" stroke="black" d="M3.91,-408.74C7.21,-408.74 17.46,-408.74 28.73,-408.74"/>
<polygon fill="black" stroke="black" points="28.62,-412.24 38.62,-408.74 28.62,-405.24 28.62,-412.24"/>
</g>
<!-- q1 -->
<g id="node3" class="node">
<title>q1</title>
<ellipse fill="none" stroke="black" cx="239.46" cy="-896.74" rx="20.13" ry="20.13"/>
<ellipse fill="none" stroke="black" cx="239.46" cy="-896.74" rx="24.13" ry="24.13"/>
<text xml:space="preserve" text-anchor="middle" x="239.46" y="-891.69" font-family="Times New Roman,serif" font-size="14.00">q1</text>
</g>
<!-- q0&#45;&gt;q1 -->
<g id="edge5" class="edge">
<title>q0&#45;&gt;q1</title>
<path fill="none" stroke="black" d="M69.1,-427.2C71.5,-508.86 82.89,-835.11 112.6,-868.74 135,-894.1 174.84,-899.27 203.7,-899.25"/>
<polygon fill="black" stroke="black" points="203.5,-902.76 213.42,-899.03 203.34,-895.76 203.5,-902.76"/>
<text xml:space="preserve" text-anchor="middle" x="121.22" y="-885.79" font-family="Times New Roman,serif" font-size="14.00">&#39;&#45;&#39;</text>
</g>
<!-- q45 -->
<g id="node4" class="node">
<title>q45</title>
<ellipse fill="none" stroke="black" cx="1607.96" cy="-453.74" rx="24.74" ry="24.74"/>
<ellipse fill="none" stroke="black" cx="1607.96" cy="-453.74" rx="28.74" ry="28.74"/>
<text xml:space="preserve" text-anchor="middle" x="1607.96" y="-448.69" font-family="Times New Roman,serif" font-size="14.00">q45</text>
</g>
<!-- q0&#45;&gt;q45 -->
<g id="edge2" class="edge">
<title>q0&#45;&gt;q45</title>
<path fill="none" stroke="black" d="M68.84,-427.05C70.41,-510.98 82.29,-854.74 171.59,-854.74 171.59,-854.74 171.59,-854.74 1503.73,-854.74 1577.72,-854.74 1599.47,-595.46 1605.14,-493.88"/>
<polygon fill="black" stroke="black" points="1608.63,-494.26 1605.67,-484.09 1601.64,-493.89 1608.63,-494.26"/>
<text xml:space="preserve" text-anchor="middle" x="841.66" y="-857.94" font-family="Times New Roman,serif" font-size="14.00">&#39;!&#39;,&#39;(&#39;,&#39;)&#39;,&#39;+&#39;,&#39;,&#39;,&#39;:&#39;,&#39;;&#39;,&#39;&lt;&#39;,&#39;&gt;&#39;,&#39;[&#39;,&#39;]&#39;,&#39;{&#39;,&#39;}&#39;</text>
</g>
<!-- q2 -->
<g id="node5" class="node">
<title>q2</title>
<ellipse fill="none" stroke="black" cx="172.59" cy="-738.74" rx="20.13" ry="20.13"/>
<text xml:space="preserve" text-anchor="middle" x="172.59" y="-733.69" font-family="Times New Roman,serif" font-size="14.00">q2</text>
</g>
<!-- q0&#45;&gt;q2 -->
<g id="edge13" class="edge">
<title>q0&#45;&gt;q2</title>
<path fill="none" stroke="black" d="M72.75,-426.79C79.98,-457.74 95.75,-522.78 112.6,-576.74 127.28,-623.76 147.47,-677.29 160.01,-709.51"/>
<polygon fill="black" stroke="black" points="156.65,-710.53 163.56,-718.57 163.17,-707.98 156.65,-710.53"/>
<text xml:space="preserve" text-anchor="middle" x="121.22" y="-629.38" font-family="Times New Roman,serif" font-size="14.00">&#39;M&#39;</text>
</g>
<!-- q14 -->
<g id="node17" class="node">
<title>q14</title>
<ellipse fill="none" stroke="black" cx="1232.83" cy="-597.74" rx="24.74" ry="24.74"/>
<text xml:space="preserve" text-anchor="middle" x="1232.83" y="-592.69" font-family="Times New Roman,serif" font-size="14.00">q14</text>
</g>
<!-- q0&#45;&gt;q14 -->
<g id="edge10" class="edge">
<title>q0&#45;&gt;q14</title>
<path fill="none" stroke="black" d="M71.87,-427.01C80.32,-467.8 106.94,-562.74 171.59,-562.74 171.59,-562.74 171.59,-562.74 1098.88,-562.74 1133.97,-562.74 1172.6,-574.28 1199.13,-584.11"/>
<polygon fill="black" stroke="black" points="1197.72,-587.31 1208.31,-587.63 1200.23,-580.78 1197.72,-587.31"/>
<text xml:space="preserve" text-anchor="middle" x="576.22" y="-565.94" font-family="Times New Roman,serif" font-size="14.00">&#39;E&#39;</text>
</g>
<!-- q18 -->
<g id="node21" class="node">
<title>q18</title>
<ellipse fill="none" stroke="black" cx="643.7" cy="-497.74" rx="24.74" ry="24.74"/>
<text xml:space="preserve" text-anchor="middle" x="643.7" y="-492.69" font-family="Times New Roman,serif" font-size="14.00">q18</text>
</g>
<!-- q0&#45;&gt;q18 -->
<g id="edge14" class="edge">
<title>q0&#45;&gt;q18</title>
<path fill="none" stroke="black" d="M79.39,-425.31C96.09,-448.75 130.61,-488.74 171.59,-488.74 171.59,-488.74 171.59,-488.74 509.75,-488.74 543,-488.74 580.82,-491.57 607.6,-494.06"/>
<polygon fill="black" stroke="black" points="606.92,-497.51 617.21,-494.99 607.59,-490.55 606.92,-497.51"/>
<text xml:space="preserve" text-anchor="middle" x="306.32" y="-491.94" font-family="Times New Roman,serif" font-size="14.00">&#39;N&#39;</text>
</g>
<!-- q19 -->
<g id="node22" class="node">
<title>q19</title>
<ellipse fill="none" stroke="black" cx="1232.83" cy="-425.74" rx="24.74" ry="24.74"/>
<text xml:space="preserve" text-anchor="middle" x="1232.83" y="-420.69" font-family="Times New Roman,serif" font-size="14.00">q19</text>
</g>
<!-- q0&#45;&gt;q19 -->
<g id="edge9" class="edge">
<title>q0&#45;&gt;q19</title>
<path fill="none" stroke="black" d="M93.38,-415.16C114.13,-419.98 144.59,-425.74 171.59,-425.74 171.59,-425.74 171.59,-425.74 1098.88,-425.74 1131.91,-425.74 1169.55,-425.74 1196.33,-425.74"/>
<polygon fill="black" stroke="black" points="1196.3,-429.24 1206.3,-425.74 1196.3,-422.24 1196.3,-429.24"/>
<text xml:space="preserve" text-anchor="middle" x="576.22" y="-428.94" font-family="Times New Roman,serif" font-size="14.00">&#39;D&#39;</text>
</g>
<!-- q23 -->
<g id="node26" class="node">
<title>q23</title>
<ellipse fill="none" stroke="black" cx="172.59" cy="-372.74" rx="24.74" ry="24.74"/>
<text xml:space="preserve" text-anchor="middle" x="172.59" y="-367.69" font-family="Times New Roman,serif" font-size="14.00">q23</text>
</g>
<!-- q0&#45;&gt;q23 -->
<g id="edge16" class="edge">
<title>q0&#45;&gt;q23</title>
<path fill="none" stroke="black" d="M91.97,-400.57C105.63,-395.79 123.09,-389.69 138.18,-384.41"/>
<polygon fill="black" stroke="black" points="138.95,-387.85 147.24,-381.25 136.64,-381.25 138.95,-387.85"/>
<text xml:space="preserve" text-anchor="middle" x="121.22" y="-396.09" font-family="Times New Roman,serif" font-size="14.00">&#39;S&#39;</text>
</g>
<!-- q27 -->
<g id="node30" class="node">
<title>q27</title>
<ellipse fill="none" stroke="black" cx="711.17" cy="-319.74" rx="24.74" ry="24.74"/>
<text xml:space="preserve" text-anchor="middle" x="711.17" y="-314.69" font-family="Times New Roman,serif" font-size="14.00">q27</text>
</g>
<!-- q0&#45;&gt;q27 -->
<g id="edge12" class="edge">
<title>q0&#45;&gt;q27</title>
<path fill="none" stroke="black" d="M77.88,-392C93.55,-366.22 127.87,-319.74 171.59,-319.74 171.59,-319.74 171.59,-319.74 577.22,-319.74 610.25,-319.74 647.89,-319.74 674.67,-319.74"/>
<polygon fill="black" stroke="black" points="674.64,-323.24 684.64,-319.74 674.64,-316.24 674.64,-323.24"/>
<text xml:space="preserve" text-anchor="middle" x="373.8" y="-322.94" font-family="Times New Roman,serif" font-size="14.00">&#39;I&#39;</text>
</g>
<!-- q35 -->
<g id="node38" class="node">
<title>q35</title>
<ellipse fill="none" stroke="black" cx="172.59" cy="-266.74" rx="24.74" ry="24.74"/>
<text xml:space="preserve" text-anchor="middle" x="172.59" y="-261.69" font-family="Times New Roman,serif" font-size="14.00">q35</text>
</g>
<!-- q0&#45;&gt;q35 -->
<g id="edge15" class="edge">
<title>q0&#45;&gt;q35</title>
<path fill="none" stroke="black" d="M70.6,-390.45C74.35,-364.59 84.78,-317.38 112.6,-289.24 119.21,-282.55 128.01,-277.82 136.8,-274.48"/>
<polygon fill="black" stroke="black" points="137.86,-277.82 146.31,-271.42 135.72,-271.15 137.86,-277.82"/>
<text xml:space="preserve" text-anchor="middle" x="121.22" y="-292.44" font-family="Times New Roman,serif" font-size="14.00">&#39;O&#39;</text>
</g>
<!-- q40 -->
<g id="node43" class="node">
<title>q40</title>
<ellipse fill="none" stroke="black" cx="172.59" cy="-190.74" rx="24.74" ry="24.74"/>
<text xml:space="preserve" text-anchor="middle" x="172.59" y="-185.69" font-family="Times New Roman,serif" font-size="14.00">q40</text>
</g>
<!-- q0&#45;&gt;q40 -->
<g id="edge11" class="edge">
<title>q0&#45;&gt;q40</title>
<path fill="none" stroke="black" d="M71.23,-390.48C76.05,-360.96 88.12,-301.6 112.6,-257.24 121.18,-241.69 133.96,-226.68 145.44,-214.87"/>
<polygon fill="black" stroke="black" points="147.79,-217.47 152.41,-207.94 142.85,-212.51 147.79,-217.47"/>
<text xml:space="preserve" text-anchor="middle" x="121.22" y="-260.44" font-family="Times New Roman,serif" font-size="14.00">&#39;G&#39;</text>
</g>
<!-- q43 -->
<g id="node46" class="node">
<title>q43</title>
<ellipse fill="none" stroke="black" cx="373.8" cy="-71.74" rx="24.74" ry="24.74"/>
<text xml:space="preserve" text-anchor="middle" x="373.8" y="-66.69" font-family="Times New Roman,serif" font-size="14.00">q43</text>
</g>
<!-- q0&#45;&gt;q43 -->
<g id="edge3" class="edge">
<title>q0&#45;&gt;q43</title>
<path fill="none" stroke="black" d="M68.06,-390.48C67.69,-341.86 73.8,-208.35 147.85,-140.24 201.28,-91.09 289.03,-77.17 337.64,-73.25"/>
<polygon fill="black" stroke="black" points="337.58,-76.76 347.31,-72.58 337.09,-69.78 337.58,-76.76"/>
<text xml:space="preserve" text-anchor="middle" x="172.59" y="-143.44" font-family="Times New Roman,serif" font-size="14.00">&#39;&amp;&#39;</text>
</g>
<!-- q44 -->
<g id="node47" class="node">
<title>q44</title>
<ellipse fill="none" stroke="black" cx="508.75" cy="-24.74" rx="24.74" ry="24.74"/>
<text xml:space="preserve" text-anchor="middle" x="508.75" y="-19.69" font-family="Times New Roman,serif" font-size="14.00">q44</text>
</g>
<!-- q0&#45;&gt;q44 -->
<g id="edge63" class="edge">
<title>q0&#45;&gt;q44</title>
<path fill="none" stroke="black" d="M69.55,-390.41C73.99,-314.5 95.72,-28.74 171.59,-28.74 171.59,-28.74 171.59,-28.74 374.8,-28.74 407.84,-28.74 445.48,-27.49 472.26,-26.39"/>
<polygon fill="black" stroke="black" points="472.38,-29.88 482.23,-25.96 472.09,-22.89 472.38,-29.88"/>
<text xml:space="preserve" text-anchor="middle" x="239.46" y="-31.94" font-family="Times New Roman,serif" font-size="14.00">&#39;|&#39;</text>
</g>
<!-- q1&#45;&gt;q45 -->
<g id="edge8" class="edge">
<title>q1&#45;&gt;q45</title>
<path fill="none" stroke="black" d="M263.88,-897.87C290.32,-899.06 334.64,-900.74 372.8,-900.74 372.8,-900.74 372.8,-900.74 1503.73,-900.74 1532.98,-900.74 1545.04,-893.1 1561.22,-868.74 1601.61,-807.93 1606.76,-585.9 1607.12,-493.99"/>
<polygon fill="black" stroke="black" points="1610.62,-494.2 1607.13,-484.19 1603.62,-494.19 1610.62,-494.2"/>
<text xml:space="preserve" text-anchor="middle" x="972.15" y="-903.94" font-family="Times New Roman,serif" font-size="14.00">&#39;&gt;&#39;</text>
</g>
<!-- q3 -->
<g id="node6" class="node">
<title>q3</title>
<ellipse fill="none" stroke="black" cx="841.66" cy="-809.74" rx="20.13" ry="20.13"/>
<text xml:space="preserve" text-anchor="middle" x="841.66" y="-804.69" font-family="Times New Roman,serif" font-size="14.00">q3</text>
</g>
<!-- q2&#45;&gt;q3 -->
<g id="edge58" class="edge">
<title>q2&#45;&gt;q3</title>
<path fill="none" stroke="black" d="M186.78,-753.23C194.49,-761.03 204.77,-770.34 215.32,-776.74 251.76,-798.82 262.72,-809.74 305.32,-809.74 305.32,-809.74 305.32,-809.74 644.7,-809.74 703.03,-809.74 771.12,-809.74 809.74,-809.74"/>
<polygon fill="black" stroke="black" points="809.68,-813.24 819.68,-809.74 809.68,-806.24 809.68,-813.24"/>
<text xml:space="preserve" text-anchor="middle" x="441.27" y="-812.94" font-family="Times New Roman,serif" font-size="14.00">&#39;u&#39;</text>
</g>
<!-- q4 -->
<g id="node7" class="node">
<title>q4</title>
<ellipse fill="none" stroke="black" cx="1035.02" cy="-762.74" rx="20.13" ry="20.13"/>
<text xml:space="preserve" text-anchor="middle" x="1035.02" y="-757.69" font-family="Times New Roman,serif" font-size="14.00">q4</text>
</g>
<!-- q2&#45;&gt;q4 -->
<g id="edge38" class="edge">
<title>q2&#45;&gt;q4</title>
<path fill="none" stroke="black" d="M192.15,-744.3C217.49,-751.39 264.41,-762.74 305.32,-762.74 305.32,-762.74 305.32,-762.74 842.66,-762.74 899.32,-762.74 965.41,-762.74 1003.22,-762.74"/>
<polygon fill="black" stroke="black" points="1002.94,-766.24 1012.94,-762.74 1002.94,-759.24 1002.94,-766.24"/>
<text xml:space="preserve" text-anchor="middle" x="508.75" y="-765.94" font-family="Times New Roman,serif" font-size="14.00">&#39;o&#39;</text>
</g>
<!-- q5 -->
<g id="node8" class="node">
<title>q5</title>
<ellipse fill="none" stroke="black" cx="306.32" cy="-714.74" rx="20.13" ry="20.13"/>
<text xml:space="preserve" text-anchor="middle" x="306.32" y="-709.69" font-family="Times New Roman,serif" font-size="14.00">q5</text>
</g>
<!-- q2&#45;&gt;q5 -->
<g id="edge18" class="edge">
<title>q2&#45;&gt;q5</title>
<path fill="none" stroke="black" d="M192.74,-735.25C214.3,-731.32 249.63,-724.88 274.96,-720.27"/>
<polygon fill="black" stroke="black" points="275.45,-723.74 284.66,-718.5 274.19,-716.85 275.45,-723.74"/>
<text xml:space="preserve" text-anchor="middle" x="239.46" y="-734.17" font-family="Times New Roman,serif" font-size="14.00">&#39;a&#39;</text>
</g>
<!-- q3&#45;&gt;q45 -->
<g id="edge32" class="edge">
<title>q3&#45;&gt;q45</title>
<path fill="none" stroke="black" d="M862.22,-809.74C896.85,-809.74 971.23,-809.74 1034.02,-809.74 1034.02,-809.74 1034.02,-809.74 1503.73,-809.74 1542.97,-809.74 1544.76,-778.35 1561.22,-742.74 1599.41,-660.13 1606.55,-551.6 1607.39,-493.89"/>
<polygon fill="black" stroke="black" points="1610.89,-494.26 1607.47,-484.23 1603.89,-494.2 1610.89,-494.26"/>
<text xml:space="preserve" text-anchor="middle" x="1232.83" y="-812.94" font-family="Times New Roman,serif" font-size="14.00">&#39;l&#39;</text>
</g>
<!-- q4&#45;&gt;q45 -->
<g id="edge23" class="edge">
<title>q4&#45;&gt;q45</title>
<path fill="none" stroke="black" d="M1055.41,-764.32C1135.59,-770.54 1441.04,-791.23 1527.47,-752.74 1547.51,-743.81 1551.43,-736.36 1561.22,-716.74 1597.47,-644.06 1605.52,-547.64 1607,-494.04"/>
<polygon fill="black" stroke="black" points="1610.49,-494.23 1607.2,-484.16 1603.5,-494.08 1610.49,-494.23"/>
<text xml:space="preserve" text-anchor="middle" x="1300.31" y="-778.66" font-family="Times New Roman,serif" font-size="14.00">&#39;d&#39;</text>
</g>
<!-- q6 -->
<g id="node9" class="node">
<title>q6</title>
<ellipse fill="none" stroke="black" cx="441.27" cy="-713.74" rx="20.13" ry="20.13"/>
<text xml:space="preserve" text-anchor="middle" x="441.27" y="-708.69" font-family="Times New Roman,serif" font-size="14.00">q6</text>
</g>
<!-- q5&#45;&gt;q6 -->
<g id="edge30" class="edge">
<title>q5&#45;&gt;q6</title>
<path fill="none" stroke="black" d="M326.94,-714.59C348.77,-714.43 384.3,-714.16 409.76,-713.97"/>
<polygon fill="black" stroke="black" points="409.52,-717.47 419.5,-713.89 409.47,-710.47 409.52,-717.47"/>
<text xml:space="preserve" text-anchor="middle" x="373.8" y="-717.61" font-family="Times New Roman,serif" font-size="14.00">&#39;i&#39;</text>
</g>
<!-- q7 -->
<g id="node10" class="node">
<title>q7</title>
<ellipse fill="none" stroke="black" cx="576.22" cy="-711.74" rx="20.13" ry="20.13"/>
<text xml:space="preserve" text-anchor="middle" x="576.22" y="-706.69" font-family="Times New Roman,serif" font-size="14.00">q7</text>
</g>
<!-- q6&#45;&gt;q7 -->
<g id="edge35" class="edge">
<title>q6&#45;&gt;q7</title>
<path fill="none" stroke="black" d="M461.89,-713.44C483.72,-713.11 519.25,-712.58 544.71,-712.2"/>
<polygon fill="black" stroke="black" points="544.5,-715.7 554.44,-712.05 544.39,-708.7 544.5,-715.7"/>
<text xml:space="preserve" text-anchor="middle" x="508.75" y="-716.29" font-family="Times New Roman,serif" font-size="14.00">&#39;n&#39;</text>
</g>
<!-- q8 -->
<g id="node11" class="node">
<title>q8</title>
<ellipse fill="none" stroke="black" cx="711.17" cy="-711.74" rx="20.13" ry="20.13"/>
<text xml:space="preserve" text-anchor="middle" x="711.17" y="-706.69" font-family="Times New Roman,serif" font-size="14.00">q8</text>
</g>
<!-- q7&#45;&gt;q8 -->
<g id="edge42" class="edge">
<title>q7&#45;&gt;q8</title>
<path fill="none" stroke="black" d="M596.84,-711.74C618.67,-711.74 654.2,-711.74 679.66,-711.74"/>
<polygon fill="black" stroke="black" points="679.39,-715.24 689.39,-711.74 679.39,-708.24 679.39,-715.24"/>
<text xml:space="preserve" text-anchor="middle" x="643.7" y="-714.94" font-family="Times New Roman,serif" font-size="14.00">&#39;p&#39;</text>
</g>
<!-- q9 -->
<g id="node12" class="node">
<title>q9</title>
<ellipse fill="none" stroke="black" cx="972.15" cy="-711.74" rx="20.13" ry="20.13"/>
<text xml:space="preserve" text-anchor="middle" x="972.15" y="-706.69" font-family="Times New Roman,serif" font-size="14.00">q9</text>
</g>
<!-- q8&#45;&gt;q9 -->
<g id="edge45" class="edge">
<title>q8&#45;&gt;q9</title>
<path fill="none" stroke="black" d="M731.64,-711.74C776.37,-711.74 886.76,-711.74 940.61,-711.74"/>
<polygon fill="black" stroke="black" points="940.3,-715.24 950.3,-711.74 940.3,-708.24 940.3,-715.24"/>
<text xml:space="preserve" text-anchor="middle" x="841.66" y="-714.94" font-family="Times New Roman,serif" font-size="14.00">&#39;r&#39;</text>
</g>
<!-- q10 -->
<g id="node13" class="node">
<title>q10</title>
<ellipse fill="none" stroke="black" cx="1097.88" cy="-710.74" rx="24.74" ry="24.74"/>
<text xml:space="preserve" text-anchor="middle" x="1097.88" y="-705.69" font-family="Times New Roman,serif" font-size="14.00">q10</text>
</g>
<!-- q9&#45;&gt;q10 -->
<g id="edge39" class="edge">
<title>q9&#45;&gt;q10</title>
<path fill="none" stroke="black" d="M992.75,-711.58C1011.12,-711.43 1039.01,-711.21 1061.31,-711.02"/>
<polygon fill="black" stroke="black" points="1061.21,-714.53 1071.18,-710.95 1061.16,-707.53 1061.21,-714.53"/>
<text xml:space="preserve" text-anchor="middle" x="1035.02" y="-714.59" font-family="Times New Roman,serif" font-size="14.00">&#39;o&#39;</text>
</g>
<!-- q11 -->
<g id="node14" class="node">
<title>q11</title>
<ellipse fill="none" stroke="black" cx="1232.83" cy="-710.74" rx="24.74" ry="24.74"/>
<text xml:space="preserve" text-anchor="middle" x="1232.83" y="-705.69" font-family="Times New Roman,serif" font-size="14.00">q11</text>
</g>
<!-- q10&#45;&gt;q11 -->
<g id="edge28" class="edge">
<title>q10&#45;&gt;q11</title>
<path fill="none" stroke="black" d="M1122.96,-710.74C1143.48,-710.74 1173.25,-710.74 1196.47,-710.74"/>
<polygon fill="black" stroke="black" points="1196.42,-714.24 1206.42,-710.74 1196.42,-707.24 1196.42,-714.24"/>
<text xml:space="preserve" text-anchor="middle" x="1165.36" y="-713.94" font-family="Times New Roman,serif" font-size="14.00">&#39;g&#39;</text>
</g>
<!-- q12 -->
<g id="node15" class="node">
<title>q12</title>
<ellipse fill="none" stroke="black" cx="1367.78" cy="-718.74" rx="24.74" ry="24.74"/>
<text xml:space="preserve" text-anchor="middle" x="1367.78" y="-713.69" font-family="Times New Roman,serif" font-size="14.00">q12</text>
</g>
<!-- q11&#45;&gt;q12 -->
<g id="edge46" class="edge">
<title>q11&#45;&gt;q12</title>
<path fill="none" stroke="black" d="M1257.91,-712.19C1278.43,-713.42 1308.2,-715.21 1331.42,-716.61"/>
<polygon fill="black" stroke="black" points="1331.18,-720.1 1341.38,-717.21 1331.6,-713.11 1331.18,-720.1"/>
<text xml:space="preserve" text-anchor="middle" x="1300.31" y="-719.35" font-family="Times New Roman,serif" font-size="14.00">&#39;r&#39;</text>
</g>
<!-- q13 -->
<g id="node16" class="node">
<title>q13</title>
<ellipse fill="none" stroke="black" cx="1502.73" cy="-718.74" rx="24.74" ry="24.74"/>
<text xml:space="preserve" text-anchor="middle" x="1502.73" y="-713.69" font-family="Times New Roman,serif" font-size="14.00">q13</text>
</g>
<!-- q12&#45;&gt;q13 -->
<g id="edge19" class="edge">
<title>q12&#45;&gt;q13</title>
<path fill="none" stroke="black" d="M1392.86,-718.74C1413.38,-718.74 1443.15,-718.74 1466.37,-718.74"/>
<polygon fill="black" stroke="black" points="1466.32,-722.24 1476.32,-718.74 1466.32,-715.24 1466.32,-722.24"/>
<text xml:space="preserve" text-anchor="middle" x="1435.26" y="-721.94" font-family="Times New Roman,serif" font-size="14.00">&#39;a&#39;</text>
</g>
<!-- q13&#45;&gt;q45 -->
<g id="edge34" class="edge">
<title>q13&#45;&gt;q45</title>
<path fill="none" stroke="black" d="M1525.78,-709.03C1538.07,-702.49 1552.6,-692.69 1561.22,-679.74 1598.84,-623.21 1606.69,-542.37 1607.7,-494.25"/>
<polygon fill="black" stroke="black" points="1611.2,-494.31 1607.81,-484.27 1604.2,-494.24 1611.2,-494.31"/>
<text xml:space="preserve" text-anchor="middle" x="1553.35" y="-699.29" font-family="Times New Roman,serif" font-size="14.00">&#39;m&#39;</text>
</g>
<!-- q14&#45;&gt;q45 -->
<g id="edge29" class="edge">
<title>q14&#45;&gt;q45</title>
<path fill="none" stroke="black" d="M1252.77,-613.11C1259.58,-617.9 1267.57,-622.71 1275.57,-625.74 1380.31,-665.37 1432.71,-691.41 1527.47,-631.74 1574.82,-601.92 1594.17,-536.37 1601.93,-493.68"/>
<polygon fill="black" stroke="black" points="1605.34,-494.49 1603.53,-484.05 1598.44,-493.34 1605.34,-494.49"/>
<text xml:space="preserve" text-anchor="middle" x="1435.26" y="-670.11" font-family="Times New Roman,serif" font-size="14.00">&#39;g&#39;</text>
</g>
<!-- q15 -->
<g id="node18" class="node">
<title>q15</title>
<ellipse fill="none" stroke="black" cx="1435.26" cy="-615.74" rx="24.74" ry="24.74"/>
<text xml:space="preserve" text-anchor="middle" x="1435.26" y="-610.69" font-family="Times New Roman,serif" font-size="14.00">q15</text>
</g>
<!-- q14&#45;&gt;q15 -->
<g id="edge36" class="edge">
<title>q14&#45;&gt;q15</title>
<path fill="none" stroke="black" d="M1257.61,-599.87C1292.63,-603.02 1358.29,-608.91 1398.94,-612.57"/>
<polygon fill="black" stroke="black" points="1398.42,-616.03 1408.69,-613.44 1399.05,-609.06 1398.42,-616.03"/>
<text xml:space="preserve" text-anchor="middle" x="1300.31" y="-608.78" font-family="Times New Roman,serif" font-size="14.00">&#39;n&#39;</text>
</g>
<!-- q16 -->
<g id="node19" class="node">
<title>q16</title>
<ellipse fill="none" stroke="black" cx="1367.78" cy="-560.74" rx="24.74" ry="24.74"/>
<text xml:space="preserve" text-anchor="middle" x="1367.78" y="-555.69" font-family="Times New Roman,serif" font-size="14.00">q16</text>
</g>
<!-- q14&#45;&gt;q16 -->
<g id="edge33" class="edge">
<title>q14&#45;&gt;q16</title>
<path fill="none" stroke="black" d="M1254.52,-585.49C1261.07,-582.05 1268.46,-578.61 1275.57,-576.24 1293.52,-570.25 1314.27,-566.49 1331.44,-564.18"/>
<polygon fill="black" stroke="black" points="1331.67,-567.67 1341.17,-562.98 1330.82,-560.73 1331.67,-567.67"/>
<text xml:space="preserve" text-anchor="middle" x="1300.31" y="-579.44" font-family="Times New Roman,serif" font-size="14.00">&#39;l&#39;</text>
</g>
<!-- q15&#45;&gt;q45 -->
<g id="edge24" class="edge">
<title>q15&#45;&gt;q45</title>
<path fill="none" stroke="black" d="M1460.31,-614.06C1479.68,-611.78 1506.96,-606.41 1527.47,-593.74 1563.9,-571.24 1585.19,-525.54 1596.42,-492.46"/>
<polygon fill="black" stroke="black" points="1599.66,-493.81 1599.39,-483.22 1593,-491.67 1599.66,-493.81"/>
<text xml:space="preserve" text-anchor="middle" x="1502.73" y="-614.48" font-family="Times New Roman,serif" font-size="14.00">&#39;d&#39;</text>
</g>
<!-- q17 -->
<g id="node20" class="node">
<title>q17</title>
<ellipse fill="none" stroke="black" cx="1502.73" cy="-559.74" rx="24.74" ry="24.74"/>
<text xml:space="preserve" text-anchor="middle" x="1502.73" y="-554.69" font-family="Times New Roman,serif" font-size="14.00">q17</text>
</g>
<!-- q16&#45;&gt;q17 -->
<g id="edge48" class="edge">
<title>q16&#45;&gt;q17</title>
<path fill="none" stroke="black" d="M1392.86,-560.56C1413.38,-560.4 1443.15,-560.18 1466.37,-560"/>
<polygon fill="black" stroke="black" points="1466.35,-563.5 1476.32,-559.93 1466.3,-556.5 1466.35,-563.5"/>
<text xml:space="preserve" text-anchor="middle" x="1435.26" y="-563.61" font-family="Times New Roman,serif" font-size="14.00">&#39;s&#39;</text>
</g>
<!-- q17&#45;&gt;q45 -->
<g id="edge25" class="edge">
<title>q17&#45;&gt;q45</title>
<path fill="none" stroke="black" d="M1524.83,-548.08C1536.37,-541.08 1550.46,-531.47 1561.22,-520.74 1570.86,-511.12 1579.75,-499.21 1587.07,-488.12"/>
<polygon fill="black" stroke="black" points="1589.86,-490.25 1592.27,-479.93 1583.95,-486.49 1589.86,-490.25"/>
<text xml:space="preserve" text-anchor="middle" x="1553.35" y="-536.36" font-family="Times New Roman,serif" font-size="14.00">&#39;e&#39;</text>
</g>
<!-- q18&#45;&gt;q45 -->
<g id="edge26" class="edge">
<title>q18&#45;&gt;q45</title>
<path fill="none" stroke="black" d="M668.82,-499.56C705.78,-502.19 778.68,-506.74 840.66,-506.74 840.66,-506.74 840.66,-506.74 1503.73,-506.74 1530.27,-506.74 1556.83,-492.7 1576.37,-479.08"/>
<polygon fill="black" stroke="black" points="1578.42,-481.91 1584.41,-473.17 1574.28,-476.27 1578.42,-481.91"/>
<text xml:space="preserve" text-anchor="middle" x="1165.36" y="-509.94" font-family="Times New Roman,serif" font-size="14.00">&#39;e&#39;</text>
</g>
<!-- q20 -->
<g id="node23" class="node">
<title>q20</title>
<ellipse fill="none" stroke="black" cx="1367.78" cy="-452.74" rx="24.74" ry="24.74"/>
<text xml:space="preserve" text-anchor="middle" x="1367.78" y="-447.69" font-family="Times New Roman,serif" font-size="14.00">q20</text>
</g>
<!-- q19&#45;&gt;q20 -->
<g id="edge20" class="edge">
<title>q19&#45;&gt;q20</title>
<path fill="none" stroke="black" d="M1257.6,-430.56C1278.31,-434.77 1308.59,-440.92 1332.01,-445.68"/>
<polygon fill="black" stroke="black" points="1331.24,-449.09 1341.74,-447.65 1332.63,-442.23 1331.24,-449.09"/>
<text xml:space="preserve" text-anchor="middle" x="1300.31" y="-447.2" font-family="Times New Roman,serif" font-size="14.00">&#39;a&#39;</text>
</g>
<!-- q22 -->
<g id="node25" class="node">
<title>q22</title>
<ellipse fill="none" stroke="black" cx="1435.26" cy="-396.74" rx="24.74" ry="24.74"/>
<text xml:space="preserve" text-anchor="middle" x="1435.26" y="-391.69" font-family="Times New Roman,serif" font-size="14.00">q22</text>
</g>
<!-- q19&#45;&gt;q22 -->
<g id="edge31" class="edge">
<title>q19&#45;&gt;q22</title>
<path fill="none" stroke="black" d="M1256.64,-418.75C1262.75,-417.07 1269.37,-415.43 1275.57,-414.24 1317.64,-406.18 1366.74,-401.47 1399.05,-399.01"/>
<polygon fill="black" stroke="black" points="1398.93,-402.53 1408.65,-398.31 1398.42,-395.54 1398.93,-402.53"/>
<text xml:space="preserve" text-anchor="middle" x="1300.31" y="-417.44" font-family="Times New Roman,serif" font-size="14.00">&#39;i&#39;</text>
</g>
<!-- q21 -->
<g id="node24" class="node">
<title>q21</title>
<ellipse fill="none" stroke="black" cx="1502.73" cy="-453.74" rx="24.74" ry="24.74"/>
<text xml:space="preserve" text-anchor="middle" x="1502.73" y="-448.69" font-family="Times New Roman,serif" font-size="14.00">q21</text>
</g>
<!-- q20&#45;&gt;q21 -->
<g id="edge49" class="edge">
<title>q20&#45;&gt;q21</title>
<path fill="none" stroke="black" d="M1392.86,-452.92C1413.38,-453.07 1443.15,-453.3 1466.37,-453.47"/>
<polygon fill="black" stroke="black" points="1466.3,-456.97 1476.32,-453.55 1466.35,-449.97 1466.3,-456.97"/>
<text xml:space="preserve" text-anchor="middle" x="1435.26" y="-456.61" font-family="Times New Roman,serif" font-size="14.00">&#39;t&#39;</text>
</g>
<!-- q21&#45;&gt;q45 -->
<g id="edge21" class="edge">
<title>q21&#45;&gt;q45</title>
<path fill="none" stroke="black" d="M1527.94,-453.74C1539.73,-453.74 1554.23,-453.74 1567.56,-453.74"/>
<polygon fill="black" stroke="black" points="1567.37,-457.24 1577.37,-453.74 1567.37,-450.24 1567.37,-457.24"/>
<text xml:space="preserve" text-anchor="middle" x="1553.35" y="-456.94" font-family="Times New Roman,serif" font-size="14.00">&#39;a&#39;</text>
</g>
<!-- q22&#45;&gt;q45 -->
<g id="edge62" class="edge">
<title>q22&#45;&gt;q45</title>
<path fill="none" stroke="black" d="M1460.12,-395.29C1478.89,-394.88 1505.46,-395.98 1527.47,-403.24 1544.75,-408.94 1562.04,-419.23 1576.05,-429.04"/>
<polygon fill="black" stroke="black" points="1573.82,-431.75 1583.97,-434.8 1577.94,-426.09 1573.82,-431.75"/>
<text xml:space="preserve" text-anchor="middle" x="1502.73" y="-406.44" font-family="Times New Roman,serif" font-size="14.00">&#39;v&#39;</text>
</g>
<!-- q24 -->
<g id="node27" class="node">
<title>q24</title>
<ellipse fill="none" stroke="black" cx="306.32" cy="-372.74" rx="24.74" ry="24.74"/>
<text xml:space="preserve" text-anchor="middle" x="306.32" y="-367.69" font-family="Times New Roman,serif" font-size="14.00">q24</text>
</g>
<!-- q23&#45;&gt;q24 -->
<g id="edge50" class="edge">
<title>q23&#45;&gt;q24</title>
<path fill="none" stroke="black" d="M197.75,-372.74C217.99,-372.74 247.16,-372.74 270.02,-372.74"/>
<polygon fill="black" stroke="black" points="269.8,-376.24 279.8,-372.74 269.8,-369.24 269.8,-376.24"/>
<text xml:space="preserve" text-anchor="middle" x="239.46" y="-375.94" font-family="Times New Roman,serif" font-size="14.00">&#39;t&#39;</text>
</g>
<!-- q25 -->
<g id="node28" class="node">
<title>q25</title>
<ellipse fill="none" stroke="black" cx="441.27" cy="-372.74" rx="24.74" ry="24.74"/>
<text xml:space="preserve" text-anchor="middle" x="441.27" y="-367.69" font-family="Times New Roman,serif" font-size="14.00">q25</text>
</g>
<!-- q24&#45;&gt;q25 -->
<g id="edge22" class="edge">
<title>q24&#45;&gt;q25</title>
<path fill="none" stroke="black" d="M331.4,-372.74C351.92,-372.74 381.69,-372.74 404.91,-372.74"/>
<polygon fill="black" stroke="black" points="404.86,-376.24 414.86,-372.74 404.86,-369.24 404.86,-376.24"/>
<text xml:space="preserve" text-anchor="middle" x="373.8" y="-375.94" font-family="Times New Roman,serif" font-size="14.00">&#39;a&#39;</text>
</g>
<!-- q26 -->
<g id="node29" class="node">
<title>q26</title>
<ellipse fill="none" stroke="black" cx="1300.31" cy="-350.74" rx="24.74" ry="24.74"/>
<text xml:space="preserve" text-anchor="middle" x="1300.31" y="-345.69" font-family="Times New Roman,serif" font-size="14.00">q26</text>
</g>
<!-- q25&#45;&gt;q26 -->
<g id="edge47" class="edge">
<title>q25&#45;&gt;q26</title>
<path fill="none" stroke="black" d="M466.29,-372.74C492.92,-372.74 537.14,-372.74 575.22,-372.74 575.22,-372.74 575.22,-372.74 1166.36,-372.74 1200.19,-372.74 1238.22,-365.72 1264.91,-359.61"/>
<polygon fill="black" stroke="black" points="1265.57,-363.05 1274.49,-357.33 1263.96,-356.24 1265.57,-363.05"/>
<text xml:space="preserve" text-anchor="middle" x="841.66" y="-375.94" font-family="Times New Roman,serif" font-size="14.00">&#39;r&#39;</text>
</g>
<!-- q26&#45;&gt;q45 -->
<g id="edge51" class="edge">
<title>q26&#45;&gt;q45</title>
<path fill="none" stroke="black" d="M1324.95,-345.82C1356.42,-340.22 1413.5,-333.4 1460,-346.24 1508.32,-359.58 1553.17,-397.65 1580.31,-424.69"/>
<polygon fill="black" stroke="black" points="1577.59,-426.91 1587.09,-431.6 1582.59,-422.01 1577.59,-426.91"/>
<text xml:space="preserve" text-anchor="middle" x="1435.26" y="-349.44" font-family="Times New Roman,serif" font-size="14.00">&#39;t&#39;</text>
</g>
<!-- q27&#45;&gt;q45 -->
<g id="edge27" class="edge">
<title>q27&#45;&gt;q45</title>
<path fill="none" stroke="black" d="M736.05,-319.45C847.28,-318.24 1315.32,-314.46 1460,-334.74 1490.33,-338.99 1501.35,-332.75 1527.47,-348.74 1554.48,-365.27 1575.53,-394.65 1589.16,-418.13"/>
<polygon fill="black" stroke="black" points="1586.06,-419.76 1593.99,-426.79 1592.18,-416.35 1586.06,-419.76"/>
<text xml:space="preserve" text-anchor="middle" x="1232.83" y="-325.34" font-family="Times New Roman,serif" font-size="14.00">&#39;f&#39;</text>
</g>
<!-- q28 -->
<g id="node31" class="node">
<title>q28</title>
<ellipse fill="none" stroke="black" cx="972.15" cy="-271.74" rx="24.74" ry="24.74"/>
<text xml:space="preserve" text-anchor="middle" x="972.15" y="-266.69" font-family="Times New Roman,serif" font-size="14.00">q28</text>
</g>
<!-- q27&#45;&gt;q28 -->
<g id="edge37" class="edge">
<title>q27&#45;&gt;q28</title>
<path fill="none" stroke="black" d="M731.65,-305.36C738.39,-301.08 746.19,-296.85 753.91,-294.24 815.31,-273.49 891.57,-270.42 935.47,-270.67"/>
<polygon fill="black" stroke="black" points="935.39,-274.17 945.44,-270.79 935.48,-267.17 935.39,-274.17"/>
<text xml:space="preserve" text-anchor="middle" x="841.66" y="-297.44" font-family="Times New Roman,serif" font-size="14.00">&#39;n&#39;</text>
</g>
<!-- q29 -->
<g id="node32" class="node">
<title>q29</title>
<ellipse fill="none" stroke="black" cx="1097.88" cy="-271.74" rx="24.74" ry="24.74"/>
<text xml:space="preserve" text-anchor="middle" x="1097.88" y="-266.69" font-family="Times New Roman,serif" font-size="14.00">q29</text>
</g>
<!-- q28&#45;&gt;q29 -->
<g id="edge52" class="edge">
<title>q28&#45;&gt;q29</title>
<path fill="none" stroke="black" d="M997.3,-271.74C1015.53,-271.74 1040.81,-271.74 1061.34,-271.74"/>
<polygon fill="black" stroke="black" points="1061.28,-275.24 1071.28,-271.74 1061.28,-268.24 1061.28,-275.24"/>
<text xml:space="preserve" text-anchor="middle" x="1035.02" y="-274.94" font-family="Times New Roman,serif" font-size="14.00">&#39;t&#39;</text>
</g>
<!-- q33 -->
<g id="node36" class="node">
<title>q33</title>
<ellipse fill="none" stroke="black" cx="1097.88" cy="-204.74" rx="24.74" ry="24.74"/>
<text xml:space="preserve" text-anchor="middle" x="1097.88" y="-199.69" font-family="Times New Roman,serif" font-size="14.00">q33</text>
</g>
<!-- q28&#45;&gt;q33 -->
<g id="edge43" class="edge">
<title>q28&#45;&gt;q33</title>
<path fill="none" stroke="black" d="M994.42,-260.22C1013.98,-249.63 1043.25,-233.78 1065.5,-221.73"/>
<polygon fill="black" stroke="black" points="1067.02,-224.89 1074.15,-217.05 1063.69,-218.73 1067.02,-224.89"/>
<text xml:space="preserve" text-anchor="middle" x="1035.02" y="-251.35" font-family="Times New Roman,serif" font-size="14.00">&#39;p&#39;</text>
</g>
<!-- q30 -->
<g id="node33" class="node">
<title>q30</title>
<ellipse fill="none" stroke="black" cx="1232.83" cy="-260.74" rx="24.74" ry="24.74"/>
<text xml:space="preserve" text-anchor="middle" x="1232.83" y="-255.69" font-family="Times New Roman,serif" font-size="14.00">q30</text>
</g>
<!-- q29&#45;&gt;q30 -->
<g id="edge6" class="edge">
<title>q29&#45;&gt;q30</title>
<path fill="none" stroke="black" d="M1122.96,-269.75C1143.48,-268.05 1173.25,-265.58 1196.47,-263.66"/>
<polygon fill="black" stroke="black" points="1196.75,-267.15 1206.43,-262.84 1196.17,-260.18 1196.75,-267.15"/>
<text xml:space="preserve" text-anchor="middle" x="1165.36" y="-271.38" font-family="Times New Roman,serif" font-size="14.00">&#39;1&#39;</text>
</g>
<!-- q31 -->
<g id="node34" class="node">
<title>q31</title>
<ellipse fill="none" stroke="black" cx="1367.78" cy="-257.74" rx="24.74" ry="24.74"/>
<text xml:space="preserve" text-anchor="middle" x="1367.78" y="-252.69" font-family="Times New Roman,serif" font-size="14.00">q31</text>
</g>
<!-- q30&#45;&gt;q31 -->
<g id="edge7" class="edge">
<title>q30&#45;&gt;q31</title>
<path fill="none" stroke="black" d="M1257.91,-260.19C1278.43,-259.73 1308.2,-259.06 1331.42,-258.54"/>
<polygon fill="black" stroke="black" points="1331.46,-262.04 1341.37,-258.31 1331.3,-255.04 1331.46,-262.04"/>
<text xml:space="preserve" text-anchor="middle" x="1300.31" y="-262.97" font-family="Times New Roman,serif" font-size="14.00">&#39;6&#39;</text>
</g>
<!-- q32 -->
<g id="node35" class="node">
<title>q32</title>
<ellipse fill="none" stroke="black" cx="1502.73" cy="-257.74" rx="24.74" ry="24.74"/>
<text xml:space="preserve" text-anchor="middle" x="1502.73" y="-252.69" font-family="Times New Roman,serif" font-size="14.00">q32</text>
</g>
<!-- q31&#45;&gt;q32 -->
<g id="edge17" class="edge">
<title>q31&#45;&gt;q32</title>
<path fill="none" stroke="black" d="M1392.86,-257.74C1413.38,-257.74 1443.15,-257.74 1466.37,-257.74"/>
<polygon fill="black" stroke="black" points="1466.32,-261.24 1476.32,-257.74 1466.32,-254.24 1466.32,-261.24"/>
<text xml:space="preserve" text-anchor="middle" x="1435.26" y="-260.94" font-family="Times New Roman,serif" font-size="14.00">&#39;_&#39;</text>
</g>
<!-- q32&#45;&gt;q45 -->
<g id="edge53" class="edge">
<title>q32&#45;&gt;q45</title>
<path fill="none" stroke="black" d="M1527.64,-261.83C1539.28,-265 1552.59,-270.55 1561.22,-280.24 1593.99,-317.02 1603.73,-374.57 1606.38,-413.19"/>
<polygon fill="black" stroke="black" points="1602.88,-413.21 1606.92,-423.01 1609.87,-412.83 1602.88,-413.21"/>
<text xml:space="preserve" text-anchor="middle" x="1553.35" y="-283.44" font-family="Times New Roman,serif" font-size="14.00">&#39;t&#39;</text>
</g>
<!-- q34 -->
<g id="node37" class="node">
<title>q34</title>
<ellipse fill="none" stroke="black" cx="1300.31" cy="-204.74" rx="24.74" ry="24.74"/>
<text xml:space="preserve" text-anchor="middle" x="1300.31" y="-199.69" font-family="Times New Roman,serif" font-size="14.00">q34</text>
</g>
<!-- q33&#45;&gt;q34 -->
<g id="edge59" class="edge">
<title>q33&#45;&gt;q34</title>
<path fill="none" stroke="black" d="M1123.06,-204.74C1158.14,-204.74 1223.38,-204.74 1263.89,-204.74"/>
<polygon fill="black" stroke="black" points="1263.85,-208.24 1273.85,-204.74 1263.85,-201.24 1263.85,-208.24"/>
<text xml:space="preserve" text-anchor="middle" x="1165.36" y="-207.94" font-family="Times New Roman,serif" font-size="14.00">&#39;u&#39;</text>
</g>
<!-- q34&#45;&gt;q45 -->
<g id="edge54" class="edge">
<title>q34&#45;&gt;q45</title>
<path fill="none" stroke="black" d="M1325.09,-200.99C1368.22,-195.38 1460.99,-188.88 1527.47,-223.74 1548.37,-234.7 1550.68,-243.62 1561.22,-264.74 1585.19,-312.74 1597.03,-373.99 1602.56,-413.53"/>
<polygon fill="black" stroke="black" points="1599.07,-413.87 1603.85,-423.32 1606.01,-412.95 1599.07,-413.87"/>
<text xml:space="preserve" text-anchor="middle" x="1435.26" y="-204.88" font-family="Times New Roman,serif" font-size="14.00">&#39;t&#39;</text>
</g>
<!-- q36 -->
<g id="node39" class="node">
<title>q36</title>
<ellipse fill="none" stroke="black" cx="306.32" cy="-263.74" rx="24.74" ry="24.74"/>
<text xml:space="preserve" text-anchor="middle" x="306.32" y="-258.69" font-family="Times New Roman,serif" font-size="14.00">q36</text>
</g>
<!-- q35&#45;&gt;q36 -->
<g id="edge60" class="edge">
<title>q35&#45;&gt;q36</title>
<path fill="none" stroke="black" d="M197.75,-266.19C217.99,-265.73 247.16,-265.06 270.02,-264.54"/>
<polygon fill="black" stroke="black" points="269.88,-268.05 279.8,-264.32 269.72,-261.05 269.88,-268.05"/>
<text xml:space="preserve" text-anchor="middle" x="239.46" y="-268.97" font-family="Times New Roman,serif" font-size="14.00">&#39;u&#39;</text>
</g>
<!-- q37 -->
<g id="node40" class="node">
<title>q37</title>
<ellipse fill="none" stroke="black" cx="441.27" cy="-254.74" rx="24.74" ry="24.74"/>
<text xml:space="preserve" text-anchor="middle" x="441.27" y="-249.69" font-family="Times New Roman,serif" font-size="14.00">q37</text>
</g>
<!-- q36&#45;&gt;q37 -->
<g id="edge55" class="edge">
<title>q36&#45;&gt;q37</title>
<path fill="none" stroke="black" d="M331.4,-262.11C351.92,-260.72 381.69,-258.7 404.91,-257.13"/>
<polygon fill="black" stroke="black" points="405.13,-260.62 414.87,-256.46 404.65,-253.64 405.13,-260.62"/>
<text xml:space="preserve" text-anchor="middle" x="373.8" y="-264.03" font-family="Times New Roman,serif" font-size="14.00">&#39;t&#39;</text>
</g>
<!-- q38 -->
<g id="node41" class="node">
<title>q38</title>
<ellipse fill="none" stroke="black" cx="576.22" cy="-216.74" rx="24.74" ry="24.74"/>
<text xml:space="preserve" text-anchor="middle" x="576.22" y="-211.69" font-family="Times New Roman,serif" font-size="14.00">q38</text>
</g>
<!-- q37&#45;&gt;q38 -->
<g id="edge44" class="edge">
<title>q37&#45;&gt;q38</title>
<path fill="none" stroke="black" d="M465.43,-248.12C486.27,-242.16 517.18,-233.33 540.9,-226.55"/>
<polygon fill="black" stroke="black" points="541.78,-229.94 550.43,-223.82 539.85,-223.21 541.78,-229.94"/>
<text xml:space="preserve" text-anchor="middle" x="508.75" y="-245.65" font-family="Times New Roman,serif" font-size="14.00">&#39;p&#39;</text>
</g>
<!-- q39 -->
<g id="node42" class="node">
<title>q39</title>
<ellipse fill="none" stroke="black" cx="1435.26" cy="-156.74" rx="24.74" ry="24.74"/>
<text xml:space="preserve" text-anchor="middle" x="1435.26" y="-151.69" font-family="Times New Roman,serif" font-size="14.00">q39</text>
</g>
<!-- q38&#45;&gt;q39 -->
<g id="edge61" class="edge">
<title>q38&#45;&gt;q39</title>
<path fill="none" stroke="black" d="M595.65,-201C620.11,-181.77 665.47,-151.74 710.17,-151.74 710.17,-151.74 710.17,-151.74 1036.02,-151.74 1170.34,-151.74 1330.12,-154.62 1399.38,-156.01"/>
<polygon fill="black" stroke="black" points="1398.89,-159.5 1408.96,-156.2 1399.03,-152.5 1398.89,-159.5"/>
<text xml:space="preserve" text-anchor="middle" x="1035.02" y="-154.94" font-family="Times New Roman,serif" font-size="14.00">&#39;u&#39;</text>
</g>
<!-- q39&#45;&gt;q45 -->
<g id="edge56" class="edge">
<title>q39&#45;&gt;q45</title>
<path fill="none" stroke="black" d="M1460.29,-155.33C1489.57,-155.1 1538,-159.81 1561.22,-190.74 1587.16,-225.28 1599.57,-348.95 1604.41,-413.65"/>
<polygon fill="black" stroke="black" points="1600.91,-413.77 1605.11,-423.49 1607.89,-413.27 1600.91,-413.77"/>
<text xml:space="preserve" text-anchor="middle" x="1502.73" y="-168.76" font-family="Times New Roman,serif" font-size="14.00">&#39;t&#39;</text>
</g>
<!-- q41 -->
<g id="node44" class="node">
<title>q41</title>
<ellipse fill="none" stroke="black" cx="306.32" cy="-150.74" rx="24.74" ry="24.74"/>
<text xml:space="preserve" text-anchor="middle" x="306.32" y="-145.69" font-family="Times New Roman,serif" font-size="14.00">q41</text>
</g>
<!-- q40&#45;&gt;q41 -->
<g id="edge40" class="edge">
<title>q40&#45;&gt;q41</title>
<path fill="none" stroke="black" d="M196.53,-183.77C217.19,-177.5 247.81,-168.2 271.31,-161.07"/>
<polygon fill="black" stroke="black" points="272.2,-164.45 280.75,-158.2 270.16,-157.76 272.2,-164.45"/>
<text xml:space="preserve" text-anchor="middle" x="239.46" y="-181" font-family="Times New Roman,serif" font-size="14.00">&#39;o&#39;</text>
</g>
<!-- q42 -->
<g id="node45" class="node">
<title>q42</title>
<ellipse fill="none" stroke="black" cx="1165.36" cy="-113.74" rx="24.74" ry="24.74"/>
<text xml:space="preserve" text-anchor="middle" x="1165.36" y="-108.69" font-family="Times New Roman,serif" font-size="14.00">q42</text>
</g>
<!-- q41&#45;&gt;q42 -->
<g id="edge57" class="edge">
<title>q41&#45;&gt;q42</title>
<path fill="none" stroke="black" d="M329.38,-140.63C355.35,-129.67 400.02,-113.74 440.27,-113.74 440.27,-113.74 440.27,-113.74 1036.02,-113.74 1067.37,-113.74 1103.03,-113.74 1128.79,-113.74"/>
<polygon fill="black" stroke="black" points="1128.72,-117.24 1138.72,-113.74 1128.72,-110.24 1128.72,-117.24"/>
<text xml:space="preserve" text-anchor="middle" x="643.7" y="-116.94" font-family="Times New Roman,serif" font-size="14.00">&#39;t&#39;</text>
</g>
<!-- q42&#45;&gt;q45 -->
<g id="edge41" class="edge">
<title>q42&#45;&gt;q45</title>
<path fill="none" stroke="black" d="M1190.38,-113.74C1217,-113.74 1261.22,-113.74 1299.31,-113.74 1299.31,-113.74 1299.31,-113.74 1503.73,-113.74 1540.35,-113.74 1544.74,-140.04 1561.22,-172.74 1600.89,-251.44 1607.49,-356.84 1607.84,-413.56"/>
<polygon fill="black" stroke="black" points="1604.34,-413.38 1607.83,-423.38 1611.34,-413.38 1604.34,-413.38"/>
<text xml:space="preserve" text-anchor="middle" x="1367.78" y="-116.94" font-family="Times New Roman,serif" font-size="14.00">&#39;o&#39;</text>
</g>
<!-- q43&#45;&gt;q45 -->
<g id="edge4" class="edge">
<title>q43&#45;&gt;q45</title>
<path fill="none" stroke="black" d="M398.81,-70.58C425.43,-69.4 469.65,-67.74 507.75,-67.74 507.75,-67.74 507.75,-67.74 1503.73,-67.74 1543.65,-67.74 1544.98,-100.27 1561.22,-136.74 1582.96,-185.56 1597.84,-339.78 1603.9,-413.6"/>
<polygon fill="black" stroke="black" points="1600.39,-413.53 1604.68,-423.22 1607.36,-412.97 1600.39,-413.53"/>
<text xml:space="preserve" text-anchor="middle" x="1035.02" y="-70.94" font-family="Times New Roman,serif" font-size="14.00">&#39;&amp;&#39;</text>
</g>
<!-- q44&#45;&gt;q45 -->
<g id="edge64" class="edge">
<title>q44&#45;&gt;q45</title>
<path fill="none" stroke="black" d="M533.76,-24.16C560.39,-23.57 604.61,-22.74 642.7,-22.74 642.7,-22.74 642.7,-22.74 1503.73,-22.74 1532.76,-22.74 1544.95,-29.7 1561.22,-53.74 1600.45,-111.7 1606.29,-323.75 1606.98,-413.35"/>
<polygon fill="black" stroke="black" points="1603.48,-413.16 1607.03,-423.14 1610.48,-413.12 1603.48,-413.16"/>
<text xml:space="preserve" text-anchor="middle" x="1097.88" y="-25.94" font-family="Times New Roman,serif" font-size="14.00">&#39;|&#39;</text>
</g>
</g>
</svg>
