<?xml version="1.0" encoding="UTF-8" standalone="no"?>
<!DOCTYPE svg PUBLIC "-//W3C//DTD SVG 1.1//EN"
 "http://www.w3.org/Graphics/SVG/1.1/DTD/svg11.dtd">
<!-- Generated by graphviz version 14.0.5 (20251129.0259)
 -->
<!-- Title: FSM Pages: 1 -->
<svg width="598pt" height="157pt"
 viewBox="0.00 0.00 598.00 157.00" xmlns="http://www.w3.org/2000/svg" xmlns:xlink="http://www.w3.org/1999/xlink">
<g id="graph0" class="graph" transform="scale(1 1) rotate(0) translate(4 152.76)">
<title>FSM</title>
<polygon fill="white" stroke="none" points="-4,4 -4,-152.76 593.62,-152.76 593.62,4 -4,4"/>
<!-- start -->
<g id="node1" class="node">
<title>start</title>
<ellipse fill="black" stroke="black" cx="1.8" cy="-44.13" rx="1.8" ry="1.8"/>
</g>
<!-- q0 -->
<g id="node2" class="node">
<title>q0</title>
<ellipse fill="none" stroke="black" cx="67.6" cy="-44.13" rx="27" ry="18"/>
<text xml:space="preserve" text-anchor="middle" x="67.6" y="-39.08" font-family="Times New Roman,serif" font-size="14.00">q0</text>
</g>
<!-- start&#45;&gt;q0 -->
<g id="edge1" class="edge">
<title>start&#45;&gt;q0</title>
<path fill="none" stroke="black" d="M3.91,-44.13C7.21,-44.13 17.46,-44.13 28.73,-44.13"/>
<polygon fill="black" stroke="black" points="28.62,-47.63 38.62,-44.13 28.62,-40.63 28.62,-47.63"/>
</g>
<!-- q1 -->
<g id="node3" class="node">
<title>q1</title>
<ellipse fill="none" stroke="black" cx="285.98" cy="-90.13" rx="20.13" ry="20.13"/>
<ellipse fill="none" stroke="black" cx="285.98" cy="-90.13" rx="24.13" ry="24.13"/>
<text xml:space="preserve" text-anchor="middle" x="285.98" y="-85.08" font-family="Times New Roman,serif" font-size="14.00">q1</text>
</g>
<!-- q0&#45;&gt;q1 -->
<g id="edge5" class="edge">
<title>q0&#45;&gt;q1</title>
<path fill="none" stroke="black" d="M93.22,-50.49C99.53,-52.06 106.3,-53.71 112.6,-55.13 160.37,-65.95 215.93,-76.95 250.79,-83.66"/>
<polygon fill="black" stroke="black" points="249.8,-87.03 260.28,-85.47 251.12,-80.16 249.8,-87.03"/>
<text xml:space="preserve" text-anchor="middle" x="178.22" y="-85.29" font-family="Times New Roman,serif" font-size="14.00">&#39;1&#39;,&#39;2&#39;,&#39;3&#39;,&#39;4&#39;,&#39;5&#39;,&#39;6&#39;,&#39;7&#39;,&#39;8&#39;,&#39;9&#39;</text>
</g>
<!-- q3 -->
<g id="node5" class="node">
<title>q3</title>
<ellipse fill="none" stroke="black" cx="285.98" cy="-24.13" rx="20.13" ry="20.13"/>
<ellipse fill="none" stroke="black" cx="285.98" cy="-24.13" rx="24.13" ry="24.13"/>
<text xml:space="preserve" text-anchor="middle" x="285.98" y="-19.08" font-family="Times New Roman,serif" font-size="14.00">q3</text>
</g>
<!-- q0&#45;&gt;q3 -->
<g id="edge2" class="edge">
<title>q0&#45;&gt;q3</title>
<path fill="none" stroke="black" d="M94.17,-40.76C100.21,-40.01 106.63,-39.26 112.6,-38.63 160.16,-33.66 215.25,-29.26 250.09,-26.65"/>
<polygon fill="black" stroke="black" points="250.31,-30.14 260.02,-25.91 249.79,-23.16 250.31,-30.14"/>
<text xml:space="preserve" text-anchor="middle" x="178.22" y="-41.83" font-family="Times New Roman,serif" font-size="14.00">&#39;0&#39;</text>
</g>
<!-- q2 -->
<g id="node4" class="node">
<title>q2</title>
<ellipse fill="none" stroke="black" cx="516.49" cy="-90.13" rx="20.13" ry="20.13"/>
<ellipse fill="none" stroke="black" cx="516.49" cy="-90.13" rx="24.13" ry="24.13"/>
<text xml:space="preserve" text-anchor="middle" x="516.49" y="-85.08" font-family="Times New Roman,serif" font-size="14.00">q2</text>
</g>
<!-- q1&#45;&gt;q2 -->
<g id="edge3" class="edge">
<title>q1&#45;&gt;q2</title>
<path fill="none" stroke="black" d="M310.58,-90.13C350.96,-90.13 433.53,-90.13 480.59,-90.13"/>
<polygon fill="black" stroke="black" points="480.51,-93.63 490.51,-90.13 480.51,-86.63 480.51,-93.63"/>
<text xml:space="preserve" text-anchor="middle" x="401.24" y="-93.33" font-family="Times New Roman,serif" font-size="14.00">&#39;0&#39;,&#39;1&#39;,&#39;2&#39;,&#39;3&#39;,&#39;4&#39;,&#39;5&#39;,&#39;6&#39;,&#39;7&#39;,&#39;8&#39;,&#39;9&#39;</text>
</g>
<!-- q2&#45;&gt;q2 -->
<g id="edge4" class="edge">
<title>q2&#45;&gt;q2</title>
<path fill="none" stroke="black" d="M497.92,-106.13C490.49,-118.99 496.68,-132.26 516.49,-132.26 530.58,-132.26 537.78,-125.55 538.09,-117.05"/>
<polygon fill="black" stroke="black" points="541.51,-116.29 535.47,-107.58 534.77,-118.16 541.51,-116.29"/>
<text xml:space="preserve" text-anchor="middle" x="516.49" y="-135.46" font-family="Times New Roman,serif" font-size="14.00">&#39;0&#39;,&#39;1&#39;,&#39;2&#39;,&#39;3&#39;,&#39;4&#39;,&#39;5&#39;,&#39;6&#39;,&#39;7&#39;,&#39;8&#39;,&#39;9&#39;</text>
</g>
</g>
</svg>
